<?xml version="1.0" standalone="no"?>
<!DOCTYPE svg PUBLIC "-//W3C//DTD SVG 20010904//EN"
 "http://www.w3.org/TR/2001/REC-SVG-20010904/DTD/svg10.dtd">
<svg version="1.0" xmlns="http://www.w3.org/2000/svg"
 width="48.000000pt" height="48.000000pt" viewBox="0 0 48.000000 48.000000"
 preserveAspectRatio="xMidYMid meet">

<g transform="translate(0.000000,48.000000) scale(0.100000,-0.100000)"
fill="#000000" stroke="none">
<path d="M5 467 c-3 -7 -4 -114 -3 -237 l3 -225 235 0 235 0 0 235 0 235 -233
3 c-183 2 -234 0 -237 -11z m207 -112 c0 -5 -5 -11 -11 -13 -6 -2 -11 4 -11
13 0 9 5 15 11 13 6 -2 11 -8 11 -13z m78 0 c0 -8 -7 -15 -15 -15 -16 0 -20
12 -8 23 11 12 23 8 23 -8z m78 -2 c-4 -22 -22 -20 -26 1 -2 10 3 16 13 16 10
0 15 -7 13 -17z m-150 -155 c-2 -75 -6 -93 -18 -93 -12 0 -16 18 -18 93 -3 87
-2 92 18 92 20 0 21 -5 18 -92z m72 77 c0 -8 -7 -15 -15 -15 -8 0 -15 7 -15
15 0 8 7 15 15 15 8 0 15 -7 15 -15z m80 -80 c0 -78 -3 -95 -15 -95 -12 0 -15
17 -15 95 0 78 3 95 15 95 12 0 15 -17 15 -95z m-235 -36 c0 -41 -4 -54 -15
-54 -16 0 -27 73 -16 102 13 33 31 5 31 -48z m160 0 c0 -43 -3 -54 -17 -57
-15 -3 -18 4 -18 51 0 29 3 57 7 61 17 17 28 -5 28 -55z"/>
</g>
</svg>
